<svg width="800" height="800" viewBox="0 0 800 800" fill="none" xmlns="http://www.w3.org/2000/svg">
<g clip-path="url(#clip0_1_5)">
<path d="M129.848 518C103.182 518 80.2484 508 61.0484 488C41.8484 468 32.2484 440.8 32.2484 406.4C32.2484 372.267 41.7151 345.333 60.6484 325.6C79.8484 305.6 102.915 295.6 129.848 295.6C156.515 295.6 178.782 306.267 196.648 327.6V222H257.448V514H196.648V483.2C179.582 506.4 157.315 518 129.848 518ZM108.248 450C118.382 460.933 130.782 466.4 145.448 466.4C160.115 466.4 172.382 460.933 182.248 450C192.382 438.8 197.448 424.267 197.448 406.4C197.448 389.067 192.382 374.933 182.248 364C172.382 352.8 160.115 347.2 145.448 347.2C130.782 347.2 118.382 352.8 108.248 364C98.1151 374.933 93.0484 389.333 93.0484 407.2C93.0484 424.533 98.1151 438.8 108.248 450ZM312.97 276V222H376.97V276H312.97ZM314.57 514V299.6H375.37V514H314.57ZM432.473 514V299.6H493.273V330C511.14 307.067 532.207 295.6 556.473 295.6C585.007 295.6 605.14 306.933 616.873 329.6C636.34 306.933 659.807 295.6 687.273 295.6C710.207 295.6 727.94 302.4 740.473 316C753.273 329.333 759.673 348.8 759.673 374.4V514H698.873V394.4C698.873 365.333 687.007 350.8 663.273 350.8C651.807 350.8 642.74 354.533 636.073 362C629.673 369.467 626.473 380.267 626.473 394.4V514H565.673V394.4C565.673 365.333 553.807 350.8 530.073 350.8C518.607 350.8 509.54 354.533 502.873 362C496.473 369.467 493.273 380.267 493.273 394.4V514H432.473Z" fill="black"/>
</g>
<defs>
<clipPath id="clip0_1_5">
<rect width="800" height="800" fill="white"/>
</clipPath>
</defs>
</svg>
